<svg width="13" height="14" viewBox="0 0 13 14" fill="none" xmlns="http://www.w3.org/2000/svg">
<path d="M11.0533 7.27998L6.93334 11.4066C6.39321 11.8867 5.6901 12.1422 4.96782 12.1209C4.24554 12.0996 3.55867 11.8032 3.04772 11.2923C2.53677 10.7813 2.24034 10.0944 2.21908 9.37216C2.19782 8.64988 2.45333 7.94677 2.93334 7.40664L8.26667 2.07331C8.58509 1.77084 9.00749 1.6022 9.44667 1.6022C9.88585 1.6022 10.3083 1.77084 10.6267 2.07331C10.9369 2.38771 11.1108 2.81162 11.1108 3.25331C11.1108 3.695 10.9369 4.11892 10.6267 4.43331L6.02667 9.02664C5.98115 9.07567 5.92641 9.11525 5.86559 9.14312C5.80477 9.171 5.73905 9.18662 5.67219 9.18909C5.60534 9.19157 5.53864 9.18085 5.47593 9.15756C5.41321 9.13426 5.3557 9.09884 5.30667 9.05331C5.25764 9.00779 5.21806 8.95305 5.19019 8.89223C5.16232 8.83141 5.1467 8.76569 5.14422 8.69883C5.14174 8.63198 5.15246 8.56528 5.17576 8.50257C5.19906 8.43985 5.23448 8.38234 5.28 8.33331L8.7 4.91998C8.82554 4.79444 8.89606 4.62418 8.89606 4.44665C8.89606 4.26911 8.82554 4.09885 8.7 3.97331C8.57447 3.84778 8.40421 3.77725 8.22667 3.77725C8.04914 3.77725 7.87887 3.84778 7.75334 3.97331L4.33334 7.39998C4.16221 7.56978 4.02638 7.77178 3.93369 7.99433C3.841 8.21687 3.79328 8.45557 3.79328 8.69664C3.79328 8.93772 3.841 9.17642 3.93369 9.39896C4.02638 9.62151 4.16221 9.82351 4.33334 9.99331C4.68292 10.3263 5.14721 10.512 5.63 10.512C6.1128 10.512 6.57709 10.3263 6.92667 9.99331L11.52 5.39331C12.0499 4.82461 12.3384 4.07243 12.3247 3.29522C12.311 2.51802 11.9961 1.77648 11.4465 1.22682C10.8968 0.677173 10.1553 0.362325 9.37809 0.348612C8.60089 0.334899 7.8487 0.623392 7.28 1.15331L1.94667 6.48664C1.22747 7.2832 0.843357 8.32655 0.87436 9.39929C0.905364 10.472 1.34909 11.4915 2.1131 12.2452C2.8771 12.9988 3.90246 13.4287 4.97553 13.4451C6.0486 13.4615 7.08663 13.0633 7.87334 12.3333L12 8.21331C12.0622 8.15115 12.1115 8.07736 12.1451 7.99614C12.1788 7.91493 12.1961 7.82788 12.1961 7.73998C12.1961 7.65207 12.1788 7.56503 12.1451 7.48381C12.1115 7.4026 12.0622 7.3288 12 7.26664C11.9378 7.20449 11.8641 7.15518 11.7828 7.12154C11.7016 7.0879 11.6146 7.07058 11.5267 7.07058C11.4388 7.07058 11.3517 7.0879 11.2705 7.12154C11.1893 7.15518 11.1155 7.20449 11.0533 7.26664V7.27998Z" fill="black"/>
</svg>
