<svg width="45" height="45" viewBox="0 0 45 45" fill="none" xmlns="http://www.w3.org/2000/svg">
<path fill-rule="evenodd" clip-rule="evenodd" d="M13.405 2.55824C10.7621 2.55824 8.61983 4.7007 8.61983 7.34385V21.2209H18.1901V19.4688C18.1901 18.7623 18.7627 18.1896 19.4691 18.1896H34.6282C35.3346 18.1896 35.9072 18.7623 35.9072 19.4688V21.2209H43.721C44.4274 21.2209 45 21.7936 45 22.5V31.5937C45 35.7846 42.5149 39.3955 38.9382 41.0326V43.7209C38.9382 44.4273 38.3655 45 37.6592 45C36.9528 45 36.3802 44.4273 36.3802 43.7209V41.821C35.8099 41.9182 35.2239 41.9688 34.626 41.9688H10.374C9.77614 41.9688 9.19006 41.9182 8.61983 41.821V43.7209C8.61983 44.4273 8.0472 45 7.34084 45C6.63447 45 6.06185 44.4273 6.06185 43.7209V41.0326C2.48509 39.3955 0 35.7846 0 31.5937V22.5C0 21.7936 0.572623 21.2209 1.27899 21.2209H6.06185V7.34385C6.06185 3.28783 9.34934 0 13.405 0C17.4606 0 20.7481 3.28783 20.7481 7.34385C20.7481 8.05029 20.1754 8.62297 19.4691 8.62297C18.7627 8.62297 18.1901 8.05029 18.1901 7.34385C18.1901 4.7007 16.0478 2.55824 13.405 2.55824ZM2.55798 23.7791V31.5937C2.55798 34.9608 4.68723 37.831 7.67248 38.9309C7.73722 38.9483 7.79996 38.9706 7.86022 38.9974C8.64913 39.2652 9.49463 39.4105 10.374 39.4105H34.626C35.5054 39.4105 36.3509 39.2652 37.1398 38.9974C37.2 38.9706 37.2628 38.9483 37.3275 38.9309C40.3128 37.831 42.442 34.9608 42.442 31.5937V23.7791H35.9072V31.5937C35.9072 32.3001 35.3346 32.8728 34.6282 32.8728H19.4691C18.7627 32.8728 18.1901 32.3001 18.1901 31.5937V23.7791H2.55798ZM20.7481 30.3146H33.3493V22.5768C33.3477 22.5514 33.347 22.5258 33.347 22.5C33.347 22.4742 33.3477 22.4486 33.3493 22.4231V20.7479H20.7481V30.3146Z" fill="#717171"/>
</svg>
