<svg width="45" height="42" viewBox="0 0 45 42" fill="none" xmlns="http://www.w3.org/2000/svg">
<path fill-rule="evenodd" clip-rule="evenodd" d="M21.5956 0.372167C22.0951 -0.124056 22.9049 -0.124056 23.4044 0.372167L38.5169 15.3863C38.5487 15.4149 38.5791 15.445 38.6079 15.4766L44.6254 21.4549C45.1249 21.9512 45.1249 22.7557 44.6254 23.2519C44.1259 23.7482 43.3161 23.7482 42.8166 23.2519L38.9382 19.3987V33.6437C38.9382 38.0885 35.3119 41.6912 30.8379 41.6912H14.1621C9.68813 41.6912 6.06185 38.0885 6.06185 33.6437V19.3987L2.18337 23.2519C1.6839 23.7482 0.874084 23.7482 0.374608 23.2519C-0.124869 22.7557 -0.124869 21.9512 0.374608 21.4549L6.39212 15.4766C6.4209 15.445 6.45125 15.4149 6.48307 15.3863L21.5956 0.372167ZM8.61983 16.8574V33.6437C8.61983 36.685 11.1009 39.1499 14.1621 39.1499H30.8379C33.8991 39.1499 36.3802 36.685 36.3802 33.6437V16.8574L22.5 3.06764L8.61983 16.8574Z" fill="#717171"/>
</svg>
