<svg width="46" height="43" viewBox="0 0 46 43" fill="none" xmlns="http://www.w3.org/2000/svg">
<path fill-rule="evenodd" clip-rule="evenodd" d="M8.94751 2.98844C9.88081 1.73617 11.2191 0.442749 12.908 0.442749H34.0383C35.7272 0.442749 37.0655 1.73617 37.9988 2.98844C39.0005 4.33252 39.8784 6.09119 40.5763 7.85628C40.8545 8.55972 40.5097 9.35546 39.8063 9.63362C39.1029 9.91178 38.3071 9.56703 38.029 8.86359C37.378 7.21734 36.6049 5.70224 35.8024 4.62539C34.9314 3.45673 34.312 3.18205 34.0383 3.18205H12.908C12.6343 3.18205 12.0149 3.45673 11.1439 4.62539C10.3413 5.70224 9.56831 7.21734 8.91733 8.86359C8.63917 9.56703 7.84343 9.91178 7.13999 9.63362C6.43655 9.35546 6.0918 8.55972 6.36996 7.85628C7.06793 6.09119 7.94578 4.33252 8.94751 2.98844ZM10.2661 15.6708C6.64693 15.6708 3.71244 18.6053 3.71244 22.2244V23.9825C3.71244 27.6016 6.64693 30.5361 10.2661 30.5361H36.6802C38.0099 30.5361 39.2472 30.14 40.2804 29.4593C40.3061 29.4409 40.3324 29.4233 40.3593 29.4066C42.0941 28.2275 43.2338 26.2379 43.2338 23.9825V22.2244C43.2338 18.6053 40.2994 15.6708 36.6802 15.6708H10.2661ZM42.4498 31.2677C44.5963 29.5654 45.9731 26.9346 45.9731 23.9825V22.2244C45.9731 17.0924 41.8122 12.9315 36.6802 12.9315H10.2661C5.13406 12.9315 0.973145 17.0924 0.973145 22.2244V23.9825C0.973145 26.9335 2.34894 29.5634 4.49406 31.2657V37.2431C4.49406 39.9457 6.68573 42.1337 9.38462 42.1337C12.0872 42.1337 14.2752 39.942 14.2752 37.2431V33.2754H32.6687V37.2431C32.6687 39.9457 34.8603 42.1337 37.5592 42.1337C40.2618 42.1337 42.4498 39.942 42.4498 37.2431V31.2677ZM39.7105 32.7701C38.7607 33.0976 37.7412 33.2754 36.6802 33.2754H35.408V37.2431C35.408 38.4316 36.372 39.3944 37.5592 39.3944C38.7477 39.3944 39.7105 38.4304 39.7105 37.2431V32.7701ZM11.5359 33.2754H10.2661C9.20417 33.2754 8.18384 33.0972 7.23336 32.7692V37.2431C7.23336 38.4316 8.19736 39.3944 9.38462 39.3944C10.5731 39.3944 11.5359 38.4304 11.5359 37.2431V33.2754ZM9.38462 20.5188C10.1411 20.5188 10.7543 21.132 10.7543 21.8884V24.058C10.7543 24.8144 10.1411 25.4276 9.38462 25.4276C8.62819 25.4276 8.01497 24.8144 8.01497 24.058V21.8884C8.01497 21.132 8.62819 20.5188 9.38462 20.5188ZM37.5617 20.5188C38.3181 20.5188 38.9313 21.132 38.9313 21.8884V24.3185C38.9313 25.0749 38.3181 25.6881 37.5617 25.6881C36.8052 25.6881 36.192 25.0749 36.192 24.3185V21.8884C36.192 21.132 36.8052 20.5188 37.5617 20.5188ZM16.34 22.9744C16.34 22.218 16.9532 21.6048 17.7097 21.6048H29.2366C29.9931 21.6048 30.6063 22.218 30.6063 22.9744C30.6063 23.7308 29.9931 24.3441 29.2366 24.3441H17.7097C16.9532 24.3441 16.34 23.7308 16.34 22.9744Z" fill="#717171"/>
</svg>
