<svg width="46" height="54" viewBox="0 0 46 54" fill="none" xmlns="http://www.w3.org/2000/svg">
<path fill-rule="evenodd" clip-rule="evenodd" d="M35.2611 53.4621C35.7493 53.9503 36.5407 53.9503 37.0289 53.4621L44.9839 45.5072C45.472 45.019 45.472 44.2276 44.9839 43.7394C44.4957 43.2513 43.7042 43.2513 43.2161 43.7394L37.395 49.5605L37.395 4.26777L43.2161 10.0888C43.7042 10.577 44.4957 10.577 44.9839 10.0888C45.472 9.60068 45.472 8.80922 44.9839 8.32107L37.0289 0.366117C36.5407 -0.122039 35.7493 -0.122039 35.2611 0.366116L27.3062 8.32107C26.818 8.80922 26.818 9.60068 27.3062 10.0888C27.7943 10.577 28.5858 10.577 29.074 10.0888L34.895 4.26777L34.895 49.5605L29.074 43.7394C28.5858 43.2513 27.7943 43.2513 27.3062 43.7394C26.818 44.2276 26.818 45.019 27.3062 45.5072L35.2611 53.4621ZM20.8126 2.74995L2 2.74995C1.72386 2.74995 1.5 2.97381 1.5 3.24995L1.5 50.5782C1.5 50.8543 1.72386 51.0782 2 51.0782H20.8126C21.0887 51.0782 21.3126 50.8543 21.3126 50.5782V48.8936H12.1561C11.7419 48.8936 11.4061 48.5578 11.4061 48.1436C11.4061 47.7294 11.7419 47.3936 12.1561 47.3936H21.3126V43.7089H17.8592C17.445 43.7089 17.1092 43.3731 17.1092 42.9589C17.1092 42.5447 17.445 42.2089 17.8592 42.2089H21.3126V38.5242H12.1561C11.7419 38.5242 11.4061 38.1884 11.4061 37.7742C11.4061 37.3599 11.7419 37.0242 12.1561 37.0242H21.3126V33.3395H17.8592C17.445 33.3395 17.1092 33.0037 17.1092 32.5895C17.1092 32.1753 17.445 31.8395 17.8592 31.8395H21.3126V28.1549H12.1561C11.7419 28.1549 11.4061 27.8191 11.4061 27.4049C11.4061 26.9907 11.7419 26.6549 12.1561 26.6549H21.3126V22.9702H17.8592C17.445 22.9702 17.1092 22.6345 17.1092 22.2202C17.1092 21.806 17.445 21.4702 17.8592 21.4702H21.3126V17.7856H12.1561C11.7419 17.7856 11.4061 17.4498 11.4061 17.0356C11.4061 16.6214 11.7419 16.2856 12.1561 16.2856H21.3126V12.601H17.8592C17.445 12.601 17.1092 12.2652 17.1092 11.851C17.1092 11.4368 17.445 11.101 17.8592 11.101H21.3126L21.3126 7.41624L12.1561 7.41624C11.7419 7.41624 11.4061 7.08045 11.4061 6.66624C11.4061 6.25203 11.7419 5.91624 12.1561 5.91624L21.3126 5.91624V3.24995C21.3126 2.9738 21.0887 2.74995 20.8126 2.74995ZM2 1.24995C0.895431 1.24995 0 2.14538 0 3.24995L0 50.5782C0 51.6828 0.89543 52.5782 2 52.5782H20.8126C21.9171 52.5782 22.8126 51.6828 22.8126 50.5782L22.8126 3.24995C22.8126 2.14538 21.9171 1.24995 20.8126 1.24995L2 1.24995Z" fill="#717171"/>
</svg>
