<svg width="32" height="12" viewBox="0 0 32 12" fill="none" xmlns="http://www.w3.org/2000/svg">
<path d="M31.5303 6.53033C31.8232 6.23744 31.8232 5.76256 31.5303 5.46967L26.7574 0.696699C26.4645 0.403806 25.9896 0.403806 25.6967 0.696699C25.4038 0.989593 25.4038 1.46447 25.6967 1.75736L29.9393 6L25.6967 10.2426C25.4038 10.5355 25.4038 11.0104 25.6967 11.3033C25.9896 11.5962 26.4645 11.5962 26.7574 11.3033L31.5303 6.53033ZM0.999998 5.25C0.585785 5.25 0.249998 5.58579 0.249998 6C0.249998 6.41421 0.585785 6.75 0.999998 6.75V5.25ZM31 5.25L0.999998 5.25V6.75L31 6.75V5.25Z" fill="black"/>
</svg>
