<svg width="46" height="53" viewBox="0 0 46 53" fill="none" xmlns="http://www.w3.org/2000/svg">
<path fill-rule="evenodd" clip-rule="evenodd" d="M9.80199 3.5137C6.26416 3.5137 3.39688 6.38098 3.39688 9.91881V36.1883C3.39688 39.7261 6.26416 42.5934 9.80199 42.5934H21.4626V3.5137H9.80199ZM9.80199 0.557495C4.63149 0.557495 0.440674 4.74832 0.440674 9.91881V36.1883C0.440674 40.8558 3.85583 44.725 8.32389 45.4336V51.0797C8.32389 51.896 8.98565 52.5578 9.80199 52.5578C10.6183 52.5578 11.2801 51.896 11.2801 51.0797V45.5496H35.4763V51.0797C35.4763 51.896 36.1381 52.5578 36.9544 52.5578C37.7707 52.5578 38.4325 51.896 38.4325 51.0797V45.2514C42.4638 44.2079 45.4407 40.5461 45.4407 36.1883V9.91881C45.4407 4.74832 41.2499 0.557495 36.0794 0.557495H9.80199ZM24.4188 3.5137V42.5934H36.0794C39.6172 42.5934 42.4845 39.7261 42.4845 36.1883V9.91881C42.4845 6.38098 39.6172 3.5137 36.0794 3.5137H24.4188ZM15.9325 18.0714C16.7488 18.0714 17.4106 18.7331 17.4106 19.5495V26.5576C17.4106 27.374 16.7488 28.0357 15.9325 28.0357C15.1162 28.0357 14.4544 27.374 14.4544 26.5576V19.5495C14.4544 18.7331 15.1162 18.0714 15.9325 18.0714ZM29.9488 18.0714C30.7652 18.0714 31.427 18.7331 31.427 19.5495V26.5576C31.427 27.374 30.7652 28.0357 29.9488 28.0357C29.1325 28.0357 28.4707 27.374 28.4707 26.5576V19.5495C28.4707 18.7331 29.1325 18.0714 29.9488 18.0714Z" fill="#717171"/>
</svg>
