<svg width="8" height="8" viewBox="0 0 8 8" fill="none" xmlns="http://www.w3.org/2000/svg">
<path d="M1.08331 4.58339L5.51081 4.58339L3.58581 6.50255C3.47597 6.6124 3.41426 6.76138 3.41426 6.91672C3.41426 7.07206 3.47597 7.22104 3.58581 7.33089C3.69566 7.44073 3.84464 7.50244 3.99998 7.50244C4.15532 7.50244 4.3043 7.44073 4.41415 7.33089L7.33081 4.41422C7.38392 4.35874 7.42555 4.29333 7.45331 4.22172C7.51166 4.0797 7.51166 3.92041 7.45331 3.77839C7.42555 3.70678 7.38392 3.64137 7.33081 3.58589L4.41415 0.669222C4.35992 0.614547 4.2954 0.57115 4.22432 0.541534C4.15323 0.511919 4.07699 0.496672 3.99998 0.496672C3.92297 0.496672 3.84673 0.511919 3.77564 0.541534C3.70456 0.571149 3.64004 0.614547 3.58581 0.669222C3.53114 0.72345 3.48774 0.787967 3.45813 0.859051C3.42851 0.930136 3.41326 1.00638 3.41326 1.08339C3.41326 1.16039 3.42851 1.23664 3.45813 1.30772C3.48774 1.37881 3.53114 1.44333 3.58581 1.49755L5.51081 3.41672L1.08331 3.41672C0.928604 3.41672 0.78023 3.47818 0.670834 3.58758C0.561437 3.69697 0.49998 3.84534 0.49998 4.00005C0.49998 4.15476 0.561437 4.30314 0.670834 4.41253C0.78023 4.52193 0.928603 4.58339 1.08331 4.58339Z" fill="#E5E5E5"/>
</svg>
